<svg xmlns="http://www.w3.org/2000/svg" width="247.18" height="35" viewBox="0 0 247.18 35"><rect class="svg__rect" x="0" y="0" width="126.91000000000001" height="35" fill="#DDB6F2"/><rect class="svg__rect" x="124.91000000000001" y="0" width="122.27000000000001" height="35" fill="#F5C2E7"/><path class="svg__text" d="M15.60 22L13.63 13.47L15.10 13.47L16.43 19.88L18.06 13.47L19.30 13.47L20.91 19.89L22.22 13.47L23.69 13.47L21.72 22L20.31 22L18.68 15.77L17.02 22L15.60 22ZM27.49 18.00L27.49 18.00L27.49 17.52Q27.49 16.28 27.94 15.32Q28.38 14.37 29.18 13.86Q29.99 13.35 31.03 13.35Q32.08 13.35 32.88 13.85Q33.69 14.35 34.13 15.29Q34.57 16.23 34.57 17.48L34.57 17.48L34.57 17.96Q34.57 19.21 34.14 20.16Q33.71 21.10 32.90 21.61Q32.09 22.12 31.05 22.12L31.05 22.12Q30.01 22.12 29.20 21.61Q28.39 21.10 27.94 20.17Q27.50 19.23 27.49 18.00ZM28.98 17.46L28.98 17.96Q28.98 19.36 29.52 20.13Q30.07 20.90 31.05 20.90L31.05 20.90Q32.03 20.90 32.56 20.15Q33.09 19.40 33.09 17.96L33.09 17.96L33.09 17.51Q33.09 16.09 32.55 15.34Q32.02 14.58 31.03 14.58L31.03 14.58Q30.07 14.58 29.53 15.33Q28.99 16.09 28.98 17.46L28.98 17.46ZM40.52 22L39.04 22L39.04 13.47L42.04 13.47Q43.51 13.47 44.32 14.13Q45.12 14.79 45.12 16.05L45.12 16.05Q45.12 16.90 44.71 17.48Q44.29 18.06 43.56 18.37L43.56 18.37L45.47 21.92L45.47 22L43.88 22L42.17 18.71L40.52 18.71L40.52 22ZM40.52 14.66L40.52 17.52L42.04 17.52Q42.79 17.52 43.22 17.15Q43.64 16.77 43.64 16.11L43.64 16.11Q43.64 15.43 43.25 15.05Q42.86 14.68 42.08 14.66L42.08 14.66L40.52 14.66ZM51.00 22L49.51 22L49.51 13.47L51.00 13.47L51.00 17.47L51.82 16.46L54.31 13.47L56.11 13.47L52.94 17.25L56.29 22L54.53 22L51.96 18.31L51.00 19.34L51.00 22ZM59.63 19.42L59.63 19.42L61.12 19.42Q61.12 20.15 61.60 20.55Q62.08 20.95 62.97 20.95L62.97 20.95Q63.75 20.95 64.14 20.63Q64.53 20.32 64.53 19.80L64.53 19.80Q64.53 19.24 64.13 18.94Q63.73 18.63 62.70 18.32Q61.67 18.01 61.06 17.63L61.06 17.63Q59.90 16.90 59.90 15.72L59.90 15.72Q59.90 14.69 60.74 14.02Q61.58 13.35 62.92 13.35L62.92 13.35Q63.81 13.35 64.51 13.68Q65.21 14.01 65.60 14.61Q66.00 15.22 66.00 15.96L66.00 15.96L64.53 15.96Q64.53 15.29 64.11 14.91Q63.69 14.54 62.91 14.54L62.91 14.54Q62.18 14.54 61.78 14.85Q61.38 15.16 61.38 15.71L61.38 15.71Q61.38 16.18 61.81 16.50Q62.25 16.81 63.24 17.10Q64.24 17.40 64.84 17.78Q65.45 18.16 65.73 18.65Q66.01 19.13 66.01 19.79L66.01 19.79Q66.01 20.86 65.19 21.49Q64.37 22.12 62.97 22.12L62.97 22.12Q62.05 22.12 61.27 21.77Q60.49 21.43 60.06 20.83Q59.63 20.22 59.63 19.42ZM77.66 22L75.69 13.47L77.16 13.47L78.48 19.88L80.11 13.47L81.35 13.47L82.97 19.89L84.28 13.47L85.75 13.47L83.78 22L82.36 22L80.74 15.77L79.08 22L77.66 22ZM91.39 22L89.91 22L89.91 13.47L91.39 13.47L91.39 22ZM97.88 14.66L95.24 14.66L95.24 13.47L102.01 13.47L102.01 14.66L99.35 14.66L99.35 22L97.88 22L97.88 14.66ZM107.25 22L105.76 22L105.76 13.47L107.25 13.47L107.25 17.02L111.06 17.02L111.06 13.47L112.54 13.47L112.54 22L111.06 22L111.06 18.21L107.25 18.21L107.25 22Z" fill="#FFFFFF"/><path class="svg__text" d="M141.18 22L138.45 13.60L140.90 13.60L142.59 18.96L144.37 13.60L146.55 13.60L148.24 19.01L150.01 13.60L152.28 13.60L149.55 22L147.01 22L145.40 16.89L143.72 22L141.18 22ZM159.17 22L156.79 22L156.79 13.60L159.17 13.60L159.17 22ZM171.45 22L163.92 22L163.92 20.51L168.16 15.48L164.03 15.48L164.03 13.60L171.27 13.60L171.27 15.09L167.03 20.11L171.45 20.11L171.45 22ZM177.39 22L174.96 22L178.67 13.60L181.02 13.60L184.73 22L182.26 22L181.60 20.37L178.05 20.37L177.39 22ZM179.83 15.93L178.74 18.61L180.90 18.61L179.83 15.93ZM191.26 22L188.89 22L188.89 13.60L192.73 13.60Q193.87 13.60 194.71 13.98Q195.55 14.35 196.00 15.06Q196.46 15.76 196.46 16.71L196.46 16.71Q196.46 17.62 196.03 18.30Q195.61 18.98 194.81 19.36L194.81 19.36L196.63 22L194.08 22L192.56 19.77L191.26 19.77L191.26 22ZM191.26 15.47L191.26 17.93L192.58 17.93Q193.31 17.93 193.69 17.61Q194.06 17.29 194.06 16.71L194.06 16.71Q194.06 16.12 193.69 15.79Q193.31 15.47 192.58 15.47L192.58 15.47L191.26 15.47ZM205.22 22L201.25 22L201.25 13.60L205.22 13.60Q206.60 13.60 207.67 14.12Q208.74 14.63 209.33 15.58Q209.91 16.53 209.91 17.80L209.91 17.80Q209.91 19.07 209.33 20.02Q208.74 20.97 207.67 21.48Q206.60 22 205.22 22L205.22 22ZM203.63 15.50L203.63 20.10L205.13 20.10Q206.21 20.10 206.86 19.49Q207.51 18.88 207.51 17.80L207.51 17.80Q207.51 16.72 206.86 16.11Q206.21 15.50 205.13 15.50L205.13 15.50L203.63 15.50ZM217.02 22L214.64 22L214.64 13.60L218.49 13.60Q219.63 13.60 220.47 13.98Q221.30 14.35 221.76 15.06Q222.22 15.76 222.22 16.71L222.22 16.71Q222.22 17.62 221.79 18.30Q221.36 18.98 220.57 19.36L220.57 19.36L222.38 22L219.84 22L218.32 19.77L217.02 19.77L217.02 22ZM217.02 15.47L217.02 17.93L218.34 17.93Q219.07 17.93 219.44 17.61Q219.82 17.29 219.82 16.71L219.82 16.71Q219.82 16.12 219.44 15.79Q219.07 15.47 218.34 15.47L218.34 15.47L217.02 15.47ZM229.13 18.95L225.93 13.60L228.44 13.60L230.43 16.94L232.42 13.60L234.72 13.60L231.51 18.99L231.51 22L229.13 22L229.13 18.95Z" fill="#FFFFFF" x="137.91000000000003"/></svg>