<svg xmlns="http://www.w3.org/2000/svg" width="247.17" height="35" viewBox="0 0 247.17 35"><rect width="108.68" height="35" x="0" y="0" fill="#31C4F3" class="svg__rect"/><rect width="140.49" height="35" x="106.68" y="0" fill="#389AD5" class="svg__rect"/><path fill="#FFF" d="M15.60 22L13.63 13.47L15.10 13.47L16.43 19.88L18.06 13.47L19.30 13.47L20.91 19.89L22.22 13.47L23.69 13.47L21.72 22L20.31 22L18.68 15.77L17.02 22L15.60 22ZM27.49 18.00L27.49 18.00L27.49 17.52Q27.49 16.28 27.94 15.32Q28.38 14.37 29.18 13.86Q29.99 13.35 31.03 13.35Q32.08 13.35 32.88 13.85Q33.69 14.35 34.13 15.29Q34.57 16.23 34.57 17.48L34.57 17.48L34.57 17.96Q34.57 19.21 34.14 20.16Q33.71 21.10 32.90 21.61Q32.09 22.12 31.05 22.12L31.05 22.12Q30.01 22.12 29.20 21.61Q28.39 21.10 27.94 20.17Q27.50 19.23 27.49 18.00ZM28.98 17.46L28.98 17.96Q28.98 19.36 29.52 20.13Q30.07 20.90 31.05 20.90L31.05 20.90Q32.03 20.90 32.56 20.15Q33.09 19.40 33.09 17.96L33.09 17.96L33.09 17.51Q33.09 16.09 32.55 15.34Q32.02 14.58 31.03 14.58L31.03 14.58Q30.07 14.58 29.53 15.33Q28.99 16.09 28.98 17.46L28.98 17.46ZM40.52 22L39.04 22L39.04 13.47L42.04 13.47Q43.51 13.47 44.32 14.13Q45.12 14.79 45.12 16.05L45.12 16.05Q45.12 16.90 44.71 17.48Q44.29 18.06 43.56 18.37L43.56 18.37L45.47 21.92L45.47 22L43.88 22L42.17 18.71L40.52 18.71L40.52 22ZM40.52 14.66L40.52 17.52L42.04 17.52Q42.79 17.52 43.22 17.15Q43.64 16.77 43.64 16.11L43.64 16.11Q43.64 15.43 43.25 15.05Q42.86 14.68 42.08 14.66L42.08 14.66L40.52 14.66ZM51.00 22L49.51 22L49.51 13.47L51.00 13.47L51.00 17.47L51.82 16.46L54.31 13.47L56.11 13.47L52.94 17.25L56.29 22L54.53 22L51.96 18.31L51.00 19.34L51.00 22ZM59.63 19.42L59.63 19.42L61.12 19.42Q61.12 20.15 61.60 20.55Q62.08 20.95 62.97 20.95L62.97 20.95Q63.75 20.95 64.14 20.63Q64.53 20.32 64.53 19.80L64.53 19.80Q64.53 19.24 64.13 18.94Q63.73 18.63 62.70 18.32Q61.67 18.01 61.06 17.63L61.06 17.63Q59.90 16.90 59.90 15.72L59.90 15.72Q59.90 14.69 60.74 14.02Q61.58 13.35 62.92 13.35L62.92 13.35Q63.81 13.35 64.51 13.68Q65.21 14.01 65.60 14.61Q66.00 15.22 66.00 15.96L66.00 15.96L64.53 15.96Q64.53 15.29 64.11 14.91Q63.69 14.54 62.91 14.54L62.91 14.54Q62.18 14.54 61.78 14.85Q61.38 15.16 61.38 15.71L61.38 15.71Q61.38 16.18 61.81 16.50Q62.25 16.81 63.24 17.10Q64.24 17.40 64.84 17.78Q65.45 18.16 65.73 18.65Q66.01 19.13 66.01 19.79L66.01 19.79Q66.01 20.86 65.19 21.49Q64.37 22.12 62.97 22.12L62.97 22.12Q62.05 22.12 61.27 21.77Q60.49 21.43 60.06 20.83Q59.63 20.22 59.63 19.42ZM76.00 18.00L76.00 18.00L76.00 17.52Q76.00 16.28 76.45 15.32Q76.89 14.37 77.69 13.86Q78.50 13.35 79.54 13.35Q80.59 13.35 81.39 13.85Q82.20 14.35 82.64 15.29Q83.08 16.23 83.08 17.48L83.08 17.48L83.08 17.96Q83.08 19.21 82.65 20.16Q82.22 21.10 81.41 21.61Q80.60 22.12 79.56 22.12L79.56 22.12Q78.52 22.12 77.71 21.61Q76.89 21.10 76.45 20.17Q76.01 19.23 76.00 18.00ZM77.49 17.46L77.49 17.96Q77.49 19.36 78.03 20.13Q78.58 20.90 79.56 20.90L79.56 20.90Q80.54 20.90 81.07 20.15Q81.60 19.40 81.60 17.96L81.60 17.96L81.60 17.51Q81.60 16.09 81.06 15.34Q80.53 14.58 79.54 14.58L79.54 14.58Q78.58 14.58 78.04 15.33Q77.50 16.09 77.49 17.46L77.49 17.46ZM89.03 22L87.55 22L87.55 13.47L89.03 13.47L92.84 19.54L92.84 13.47L94.31 13.47L94.31 22L92.83 22L89.03 15.95L89.03 22Z" class="svg__text"/><path x="119.68" fill="#FFF" d="M123.07 22L120.87 22L120.87 13.60L122.82 13.60L125.78 18.45L128.66 13.60L130.61 13.60L130.64 22L128.46 22L128.43 17.55L126.27 21.17L125.22 21.17L123.07 17.67L123.07 22ZM137.92 18.95L134.72 13.60L137.23 13.60L139.22 16.94L141.21 13.60L143.51 13.60L140.30 18.99L140.30 22L137.92 22L137.92 18.95ZM156.77 22L154.57 22L154.57 13.60L156.53 13.60L159.48 18.45L162.36 13.60L164.32 13.60L164.34 22L162.16 22L162.14 17.55L159.97 21.17L158.92 21.17L156.77 17.67L156.77 22ZM170.92 22L168.49 22L172.20 13.60L174.55 13.60L178.26 22L175.79 22L175.13 20.37L171.58 20.37L170.92 22ZM173.36 15.93L172.27 18.61L174.43 18.61L173.36 15.93ZM181.99 17.80L181.99 17.80Q181.99 16.54 182.58 15.54Q183.18 14.55 184.23 13.99Q185.29 13.43 186.60 13.43L186.60 13.43Q187.76 13.43 188.68 13.84Q189.60 14.25 190.22 15.02L190.22 15.02L188.71 16.39Q187.89 15.40 186.73 15.40L186.73 15.40Q186.04 15.40 185.51 15.70Q184.98 16 184.68 16.54Q184.38 17.09 184.38 17.80L184.38 17.80Q184.38 18.51 184.68 19.05Q184.98 19.60 185.51 19.90Q186.04 20.20 186.73 20.20L186.73 20.20Q187.89 20.20 188.71 19.22L188.71 19.22L190.22 20.58Q189.61 21.35 188.68 21.76Q187.76 22.17 186.60 22.17L186.60 22.17Q185.29 22.17 184.23 21.61Q183.18 21.05 182.58 20.05Q181.99 19.06 181.99 17.80ZM197.13 22L194.75 22L194.75 13.60L197.13 13.60L197.13 16.76L200.37 16.76L200.37 13.60L202.75 13.60L202.75 22L200.37 22L200.37 18.72L197.13 18.72L197.13 22ZM210.29 22L207.91 22L207.91 13.60L210.29 13.60L210.29 22ZM217.79 22L215.46 22L215.46 13.60L217.42 13.60L221.13 18.07L221.13 13.60L223.45 13.60L223.45 22L221.50 22L217.79 17.52L217.79 22ZM235.36 22L228.62 22L228.62 13.60L235.21 13.60L235.21 15.44L230.97 15.44L230.97 16.85L234.70 16.85L234.70 18.63L230.97 18.63L230.97 20.17L235.36 20.17L235.36 22Z" class="svg__text"/></svg>